<?xml version="1.0" encoding="UTF-8"?>
<svg version="1.1" viewBox="0 0 2048 1246" width="1280" height="1280" xmlns="http://www.w3.org/2000/svg">
<path transform="translate(0)" d="m0 0h2048v1246h-2048z"/>
<path transform="translate(269,99)" d="m0 0h45l19 3 27 9 21 10 21 14 13 11 16 16 14 19 8 14 8 16 7 21 5 22 2 18v19l-3 23-9 33-7 16-10 17-12 17-12 13-7 7-8 7-21 14-16 8-25 9-12 3-14 1v2l49-1 2 3 4 28 4 20 9 35 7 20 11 25 14 24 18 27 14 18 14 19 14 21 10 18 5 12 9 31 3 8h1l3-31 3-14 7-19 10-21 12-19 12-16 11-13 15-16 9-9 11-9 17-13 22-14 22-12 25-10 23-7 19-4 8-1h33l16 3 10 5 6 8 8 16 4 17 1 11v17l-2 15-5 17-12 27-10 17-8 12-14 18-11 14-11 13-14 15-7 8-13 13-7 8-20 20-5 4-4 5 8-4 10-9 13-10 28-24 31-31 9-11 8-9 12-16 7-11 11-17 14-31 5-17 4-24v-23l-3-17-5-16-8-16-3-9 4-17 5-11 8-16 14-18 11-12 13-11 14-10 15-8 19-8 12-3 12-1h15l9 1h10l-11-25-13-28-14-25-15-22-8-10-11-12-9-11-1-2 5 1 22 13 10 8 13 10 14 12 19 19 9 11 8 9 10 13 14 21 12 20 8 16 11 23 15 43 6 24 6 30 1 9-3 9-8 34-16 48-10 24-9 21-8 16-13 25-13 21-11 16-14 19-7 9-13 16-13 15-12 13-28 28-8 7-14 13-11 9-13 11-17 13-18 14-25 17-22 14-16 10-14 8 16-6 18-8 19-10 21-11 24-14 19-12 12-8 19-13 18-14 13-10 15-13 8-7 10-9 12-11 20-20 7-8 9-10 11-14 14-18 10-15 14-22 14-26 8-16 6-13h2v10l-11 56-5 21-13 40-18 41-15 28-11 17-7 11-10 13-8 11-11 12-7 8-14 15-24 22-18 13-17 12-24 14-34 15-26 8-7 3-4-1 10-7 12-7 13-10 13-11 12-11 15-15 9-11 9-10 15-20 13-19 11-18 8-15-11 7-18 13-18 11-19 12-25 15-18 10-24 13-22 11-30 13-25 10-41 14-46 12-27 5-33 4-22 2-21 1h-13l-24-1h-27l-25 7-20 6-25 10-13 3h-17l-16-3-12-5-13-9-15-15-10-15-10-19-11-29-8-25-7-26-13-41-14-35-13-32-10-28-7-24-7-31-3-20-1-17v-16l2-41 6-70 2-39v-39l-1-32v-20l-9-6-16-11-13-11-10-9-10-11-13-18-8-14-7-14-7-21-5-24-2-23 2-26 4-24 8-24 12-23 12-17 8-10 11-12 11-9 13-10 15-9 16-8 20-7 21-5z" fill="#fff"/>
<path transform="translate(784,119)" d="m0 0 9 2 28 8 29 12 19 8 27 12 28 15 23 14 19 13 19 14 14 11 15 13 13 12 26 26 7 8 9 10 11 14 4 3 123 1 6 3 11 12 7 8 9 10 24 28 11 12 9 11 9 10 7 8 12 14 11 12 7 8 9 10 12 14 9 10 7 8 12 14 9 11 9 10 9 11 4 4 4-2 8-7 18-20 13-14 9-11 8-9 7-8 11-12 7-8 9-10 9-11 13-14 7-8 14-15 7-8 10-11 8-10 13-15 7-7 7-8 7-7 9-12 2-1 276-1-2 4-14 15-7 8-23 23-7 8-13 13-7 8-7 7-7 8-22 22-7 8-7 7-7 8-26 26-7 8-28 28-7 8-79 79-7 8-18 18-7 8-3 4 1 4 92 92 7 8 22 22 7 6 7 8 79 79 8 7 16 17 21 21 8 7 48 48 8 7 4 5v2l-53 1h-223l-7-3-9-10-7-8-12-14-6-6v-2h-2l-9-11-7-7-7-8-5-5-9-10-8-8-9-11-11-11-7-8-13-14-7-8-10-11-7-8-16-17-24-26-11-12-11-11-5-6-4-1-2 5-10 11-7 8-11 12-14 15-12 13-24 28-14 15-9 9-7 8-12 13-7 8-27 30-11 12-9 10-12 13-9 10-9 11-6 5h-114l-11 12-11 14-16 17-20 20-8 7-12 11-28 22-16 12-16 10-18 11-24 13-35 17-30 12-25 9-21 7-6 1 1-3 34-16 19-10 15-8 17-11 22-15 17-12 13-10 13-11 8-7 15-14 18-18 7-8 13-15 14-17 14-18 20-30 9-15 10-18 15-29 15-35 13-36 7-26 7-31 6-37 5-52 1-15v-16l-4-50-4-37-6-32-8-30-11-33-13-32-12-26-15-29-13-21-16-24-12-17-10-13-12-14-11-13-12-13-23-23-8-7-12-11-10-8-16-13-15-11-24-16-19-12-23-12-19-8-17-7-6-4z" fill="#E33729"/>
<path transform="translate(737,561)" d="m0 0h20l10 4 10 9 8 13 3 11v19l-5 22-6 15-8 16-9 16-10 14-9 13-10 13-9 11-12 14-13 15-9 11-7 8-41 41-8 7-14 13-9 6-7-6-10-8-6-8-6-13-2-7-1-8v-11l2-14 9-27 11-21 10-14 9-10 11-12 10-10 10-8 18-14 16-10 17-10 7-5 1-2-35 8-33 11-16 8-19 10-12 8-12 9-12 11-11 11-9 11-11 15-7 12-5 6h-1l1-14 5-19 11-27 10-19 14-20 10-11 7-8 10-9 13-10 17-12 23-13 19-9 26-10 35-10z" fill="#010000"/>
<path transform="translate(236,570)" d="m0 0 2 4 4 35 5 26 7 26 10 30 11 26 18 36 12 19 12 18 9 12 11 15 1 4-8-6-9-9-8-7-9-9-9-11-12-14-11-14-6-8h-3v11l3 18 8 28 7 19 14 30 12 23 10 16 13 21 2 5-4-2-32-32-7-8-12-14-14-19-12-21-9-20-13-40-5-26-2-18v-45l3-35 4-33 6-29z" fill="#040100"/>
<path transform="translate(288,232)" d="m0 0 13 1 12 4 10 6 8 8 7 14 2 10v13l-4 15-6 9-7 7-13 8-8 3h-20l-13-5-9-6-7-7-7-11-3-9-1-11 2-13 5-12 7-9 7-6 12-6z" fill="#020000"/>
<path transform="translate(398,631)" d="m0 0 9 2 11 9 16 16 11 14 10 14 8 13 10 18 6 15 5 17 2 12v22l-4 1-25-9-11-7-15-14-9-12-7-14-7-21v-2l4 2 9 10 9 11 11 10 9 6h1l-3-7-10-14-7-10-10-15-10-17-9-17-6-18-1-5v-8z" fill="#030000"/>
<path transform="translate(267,126)" d="m0 0h12l6 1v1l-19 3-9 3-26 13-13 9-11 9-11 10-9 11-7 10-10 17-7 16-8 27-3 19v23l3 19 8 27 7 16 10 17 11 14 11 12 11 10 8 7v3l-14-9-12-8-15-13-11-12-12-17-10-19-8-23-4-18-1-11v-20l3-24 5-17 9-22 6-11 11-16 14-15 10-9 17-12 25-12 17-6z" fill="#080201"/>
<path transform="translate(1192,582)" d="m0 0 6 5 7 8 7 7 7 8 14 15 14 14-2 5-15 13-20 20-7 8-5 4-3 2h-3v-11l1-10v-57l-1-14z"/>
</svg>
