<?xml version="1.0" encoding="UTF-8"?>
<svg version="1.1" viewBox="0 0 1600 1155" width="1280" height="1280" xmlns="http://www.w3.org/2000/svg">
<path transform="translate(0)" d="m0 0h1600v1155h-1600z" fill="#2D1518"/>
<path transform="translate(1593,532)" d="m0 0h7v623h-582l-4-3v-5l6-7v-2l-4-2-2-5 3-3-1-5-2-5 2-2h3l2 6 3-2v-9l3-1 2-9 6-4-2-5 8-1v-3l-2-6 4-2 3 2v2l5-1 2-8-2-1h3v-2h2l-1-4 4-5 2-5 9-1-1-1 2-5 3-2 2-7 4-4 2-3 5-2 3-6 5-1 3-15 5-1v-4l1-5 7-3v-4h3v-2h3l2-6 4-6 7-4 2-4 1 1 2-2 1-7 3-3h2l2-6 5-3 3-9 3-1 1-8 5-5 5-3 3-1 2-5 4-4 7-1 1-2h3l2-4 4-1 1-7 5-1 1-4 9-6h5l2-8 5 1 3 2 2-6 6-2 2-1 2-3-1-3-3-1 2-3h3l1 4 4-1v-5h-2v-2l4-2h5l1-5 8-3 7-6 2-6h2v-2h2l2-5 5-2v-2l2-1 1-3 2-1 2-5 5-3 2-5 6-5 1-2h7l9-4 6-7h2l2-5 5-5 6-10 3-8 8-3 8-6 3-1v-2h2l2-5 4-2 3 2-1-4h2v-2l6-3v-8l5-3 3-1 1-2h2l2-4 3-7 4-2v-4l7-2 4-4h4v-2l9-6 7-4 11-8 4-8h3l2-4 6-7 2-4h2v-2h3l2-4 5-3 7-5 3-5 5-3h2l2-6 5-4 4-2 5-5h2l3-11 2-5 1-9 4-2 3-9 6-5 4-5 9-5 2-4 5-1v-4l6-4 1-2h2v-2h2l-1-4 1-3 5 1h3l3-1h23l4-1 4-11z" fill="#87171A"/>
<path transform="translate(1377,245)" d="m0 0h7l-2 5-32 48-10 14-30 45-7 11-11 15-5 9 1 3 5 5 16 17 11 13 9 11 9 10 7 8 12 14 13 15 10 11 9 11 10 11 5 6v2h2l3 5 5 5 8 10 12 14 8 9v2l-19 5-46 11-17 3-9-7-8-9v-2h-2l-9-11-7-7-7-8-10-11-7-8-9-11-11-13-7-7-9-11-7-7v-2h-2l-10-13-6-7-3-7-4 2-13 18-19 28-10 14-14 20-7 11-5 6-15 4-50 11-15 2h-5l-1-2 5-6 1-3h2l2-4 7-10 8-10 2-5-10 4-53 12-6 1h-9l1-26 2-22v-80l-3-4h-12l-13 4-8 4-5 5h-2l-1 4-2 5-1 53-1 15-2 43v13l-9 3-40 9-35 7h-9v-26l2-2 2-16 2-35v-53l-2-6h-12l-20 4-16 6-8 6-6 9-3 12-1 9v29l-2 41v10l-1 8-1 23-1 2-56 13-22 5h-8v-11l2-24 1-6v-60l2-16 1-10 1-39-1-6v-49l1-1 40-9 24-6 15-3 6-1v20h3l2-5 3-5 8-7 13-8 16-7 27-7 13-2h13l8 2 9 8 2 6 3 1-1 3 3-3 4-6 10-11 10-8 16-8 15-5 25-6 23-5 8-1h10l10 2 12 5 8 6 7 8 4 8 3 13 1 11 1 40-1 27-1 7v11l-2 20v18l-2 17 1 9 6-11h2v-3h2v-3h2v-3h2l2-5 12-17 10-15 9-12 13-17 11-15 5-10v-6l-9-8v-2l-4-2-11-14-10-11-4-6-7-8v-2h-2l-11-14-9-10-11-14-4-6 1-1 20-4 29-7 21-5 14-3 6 1 14 17 11 14 10 11 8 10 12-15 9-14 5-9 15-22 9-13 10-5 17-5 42-10z" fill="#B90B1D"/>
<path transform="translate(444,395)" d="m0 0h3l-4 99-1 3-15 4-26 6-14 3h-4l-2-22-34 7-61 14-11 4-3 2h-3v2h-2l-5 10-3 9-3 72-1 47 1 13 2 7 5 3h10l26-5 27-6 20-4 9-3 1-3 3-3 3-5 2-9 3-1 1-5 1-14 1-5-38 8-12 1 1-11 1-33 2-5v-7l12-3 54-13 22-5 28-7h4l-2 30v47l-2 62v21l-1 11-2 2-58 14-36 9-41 10-70 17-15 3-15 1-13-4-8-5-7-8-5-11-3-17-1-8v-50l1-38 1-19 1-45 1-27 3-20 4-14 4-8 10-15 6-7 3-3h2l1-3 15-10 16-8 12-5 11-4 12-3 12-2 13-3 18-4 15-4 18-4 38-9 33-7 22-5z" fill="#B90B1D"/>
<path transform="translate(706,402)" d="m0 0h3v50l-1 12-2 76-1 23-2 64-3 20-5 15-6 10-9 10-11 8-13 6-18 6-54 13-44 10-38 9-30 6-10 1 2-4 12-16 13-16 10-14 9-11 3-2 36-6 24-6 10-5 11-8 5-4 9-12 5-11 2-4v3h2l2-21-10 6-16 7-21 5-12 2h-21l-16-3-14-4-12-8-7-8-7-23-4-14-1-15v-39l2-56 30-7 41-10 11-1-1 18-1 37-1 10v36l4 9 6 6 6 2h16l13-4 5-2 2-4 6-8 4-17 2-25 2-53 2-3v-14l-1-2 15-4 40-10z" fill="#B90B1D"/>
<path transform="translate(1599,838)" d="m0 0h1v317h-281l2-4 3-7 1-2h2l1-6 4-7 5-5 9-15 8-14 5-9 4-6 7-11 1-4 4-7 6-7 10-17 11-19 7-10 4-2 19-1 36-1 18-2 8-2 7-11 18-30 4-4 9-14 7-10 12-19 7-11 15-23 7-11 15-22z" fill="#2D1518"/>
<path transform="translate(1598,933)" d="m0 0 2 1v221h-125l6-12 10-18 15-29 8-14 14-25 15-28 10-17 11-21 12-21 13-25 7-10z" fill="#DA0D21"/>
<path transform="translate(319,424)" d="m0 0h7l-2 4-3 2h-5v2l-3 2-2 2-7 1 5 2v2h2l-2 4-8 3-8 4-8 2-6 2-2-1v2h-2v2l-12 7-1-2h-2l-1 3-2 2h-6l-3 1-1 2-4 1-2 4-1 4-5 1-3-1 2 4-2 3v-3h-2l-1-2-3 3-3 1v2l3 1-8 6-1-3-9 3-5 1h-2v2l-5 4-3-1-7 7-4-2-6 2v27l-1 11 2 7 5 2 3 3-1 5-2 3-4 1v9l-1 10v14l-1 14v8l-1 5-1 19 1 7v23l-2 11-1 2-1 13-1 2v22l-3 3-2-16v-50l1-38 1-19 1-45 1-27 3-20 4-14 4-8 10-15 6-7 3-3h2l1-3 15-10 16-8 12-5 11-4 12-3 12-2 13-3 18-4z" fill="#88171B"/>
<path transform="translate(1099,596)" d="m0 0h5v12l-2 11-5 8-6 5-6 3 1 4 10 14 2 3v3l-16 4-6-1-13-13-4-3-4-1-1 8-1 19-7 2-9 2h-6l1-22 2-17 2-22 1-5 15-4h5v14l20-4 4-1 1-14 8-3z" fill="#B60B1C"/>
<path transform="translate(412,763)" d="m0 0h2v11l-4 43-1 9-9 3-42 10-12 2-1-2 1-17 5-2 20-4 18-5h2v-10l-28 6-7 1h-8v-24l2-7 8-2h12l2 2-3 6-1 5 20-4 7-3 2-9 9-3 5-3z" fill="#88171B"/>
<path transform="translate(993,620)" d="m0 0 3 1-9 19-9 14-9 15-10 17-7 9-3 3-11 3h-12l-14-60 1-3 15-3 5 1 7 22 2 13h3l2-5 12-23 10-17 3-2z" fill="#B70B1C"/>
<path transform="translate(807,661)" d="m0 0h6v9l-2 3-14 3-15 5-4 1-1 13 27-5 1 4-1 10-1 2-13 4-13 3-2 1-3 15-1 10-6 2-11 2h-6l4-37 3-31 7-3z" fill="#B60B1C"/>
<path transform="translate(1200,567)" d="m0 0h2l-1 10-9 3-2 16-5 41-1 4-7 2-7 1h-8v-11l3-30 1-13-16 1-4-4 2-4 9-4 18-6z" fill="#B60B1C"/>
<path transform="translate(641,724)" d="m0 0 2 1v27l12-2 17-4 3 1v16l-7 3-25 6-20 4h-5l1-19 3-26 6-3 11-3z" fill="#B60B1C"/>
<path transform="translate(279,498)" d="m0 0 2 1-1 3 4 1-1 5 3 1-11 4-3 2h-3v2h-2l-9 18-2 16-1 13-1 21-1 37-1 13-6-3-1-5-2-7-1-5 3-6 1-8 1-5-3-10-2-4-4-4-1-13 3-18 2-6 1-8 2-7h3l2-6 7-6v-4l5-1 5-3h8l1-7z" fill="#88171B"/>
<path transform="translate(1337,514)" d="m0 0h7l6 5 2 3 9 2 4 3 4 1 2 7 4 4v3l5 1 2 5v6h-5l-1 3 1 6-4 1-3-3h-3v-2l-4-1h-13v-2l-9-3-5-3v-2h-2v-2l-3-1-2-6v-13l3-8h2v-2z" fill="#DA0C21"/>
<path transform="translate(410,779)" d="m0 0h2v19l-3 28-9 3-42 10-12 2-1-2 1-17 5-2 20-4 18-5 2-1 1-9 6-1 7 1 2-14 1-4h2z" fill="#B60C1C"/>
<path transform="translate(878,646)" d="m0 0 3 1v13l-5 53-9 4-5 1h-7l1-18 2-24 2-23 2-4z" fill="#B60B1C"/>
<path transform="translate(309,786)" d="m0 0h1v27l-3 38-9 3-13 2 1-22 4-38 1-4 5-1 9-1v-2z" fill="#B60B1C"/>
<path transform="translate(519,749)" d="m0 0 2 1v23l-2 23-2 6-13 3-10 1v-10l4-35 2-5 7-3 9-3z" fill="#B70B1C"/>
<path transform="translate(741,396)" d="m0 0h4l1 5v25l-2 65-2 73-3 47-2 5h6v1h-8v-11l2-24 1-6v-60l2-16 1-10 1-39-1-6z" fill="#88181B"/>
<path transform="translate(309,786)" d="m0 0h1v27h-1l-1-12h-3l1 5-2 12h-2l-1 2v-2h-2l-4-9-1-3-4-1v-9l1-4 5-1 9-1v-2z" fill="#88181B"/>
<path transform="translate(1022,410)" d="m0 0 8 1 4 7 2 6v35l-2 39-3 27-1 20-2-1 2-38 1-9v-80l-3-4-11-1v-1z" fill="#88181B"/>
<path transform="translate(1105,310)" d="m0 0 4 1 2 1 1 5h2l1 4 3 1 7 8 10 13 6 8 9 11 6 5 6 7 5 5 5 6v2l4 1 8 10 4 7-1 2-9-8v-2l-4-2-11-14-10-11-4-6-7-8v-2h-2l-11-14-9-10-11-14z" fill="#88181B"/>
<path transform="translate(519,749)" d="m0 0 2 1v23h-1l-1-13h-4l-2 10-2 2-6-1v-2l-6 1-1 7h-1l1-16 2-5 7-3 9-3z" fill="#88181B"/>
<path transform="translate(627,421)" d="m0 0 4 1h-2l-1 9-1 45-1 5-2 19-1 18-3 7h-1l1-15 2-45 1-24 2-3v-14l-1-2z" fill="#88171B"/>
<path transform="translate(1239,454)" d="m0 0 2 1v2l4 1 5 6 3 4v2l3 1 6 9 6 7 7 9 11 12 5 6v2h2l8 10 6 6v2h2l5 6 5 3 5 9v3l-9-9-9-11-7-7-7-9-11-13-7-7-9-11-7-7v-2h-2l-10-13-6-7z" fill="#88181B"/>
<path transform="translate(881,438)" d="m0 0h12l3 4 1 27-1 42-3 47-3 20h-2v-26l2-2 2-16 2-35v-53l-2-6-11-1z" fill="#88181B"/>
<path transform="translate(807,661)" d="m0 0h6v9l-2 3-14 3-9 2 2-1 1-4h-2v-4l3-3-2-1z" fill="#88171B"/>
<path transform="translate(986,427)" d="m0 0 1 3-2 5-1 53-1 15-1 22-2 20h-1v-17l2-73 1-18 3-9z" fill="#CF0C20"/>
<path transform="translate(258,532)" d="m0 0 1 4-3 72-1 34h-1l-1-20v-37l1-23 2-23z" fill="#BF0B1D"/>
<path transform="translate(328,567)" d="m0 0h8l-2 2-5 1-2 16-1 13-1 9-1 13 8 1v1l-12 1 1-11 1-33 2-5v-7z" fill="#88181B"/>
<path transform="translate(486,712)" d="m0 0h2l-3 10-5 8-4 1-2 4-4 3-3-1 6-12 8-10h3v-2z" fill="#8C161B"/>
<path transform="translate(1165,576)" d="m0 0 3 1-4 1 1 10 1 2-16 1-4-4 2-4 9-4z" fill="#88181B"/>
<path transform="translate(478,454)" d="m0 0 4 1-1 4-2 38-1 26v19l1 26-2-4-1-15v-39z" fill="#88181B"/>
<path transform="translate(1135,492)" d="m0 0 1 2-7 12-8 11-8 9-5 2-1 2-1-4 3-1 1-4 1 3 6-11h2v-3h2v-3h2v-3h2l2-5z" fill="#8F161B"/>
<path transform="translate(486,592)" d="m0 0 3 3 6 7 5 4 7 4 3 5 20 6v1l-9-1-14-4-12-8-7-8z" fill="#88181B"/>
<path transform="translate(444,395)" d="m0 0h3l-4 98h-1v-30l1-54 1-5z" fill="#D60C21"/>
<path transform="translate(641,724)" d="m0 0 2 1v20h-1l-1-13h-2l-4 4-10-1-2-1-1 2v-5l6-3 11-3z" fill="#88181B"/>
<path transform="translate(829,462)" d="m0 0 1 3-3 12-1 9v29l-2 26h-1v-48l1-17 4-13z" fill="#D00C20"/>
<path transform="translate(807,661)" d="m0 0h6v9l-1 2h-6l-2-6-10 1 4-4z" fill="#AF0D1C"/>
<path transform="translate(612,622)" d="m0 0 1 3h2l1-2-1 7-6 12-6 5-2-1 10-20z" fill="#90151B"/>
<path transform="translate(1402,529)" d="m0 0h4l3 5 5 5 8 10 12 14 4 4-1 3-12-13-9-11-13-15z" fill="#D30D21"/>
<path transform="translate(361,821)" d="m0 0h5l3 3-1 5-8 3-5-1 2-6z" fill="#88181B"/>
<path transform="translate(553,443)" d="m0 0 2 1 1 3v10l-3 1-5-3-1-5 4-4z" fill="#88181B"/>
<path transform="translate(370,615)" d="m0 0h1l-1 20-2 12-2 6-3-2 1-5-1-3 1-3 3-1 1-5 1-14z" fill="#88181B"/>
<path transform="translate(981,500)" d="m0 0 2 1-1 24-2 20h-1v-17l1-27z" fill="#D70C21"/>
<path transform="translate(1196,568)" d="m0 0h4l-1 3h-2l-1 2-10 1-2 1v-2l-9 1v-1z" fill="#88181B"/>
<path transform="translate(829,462)" d="m0 0 1 3-3 12-2 15h-1v-16l4-13z" fill="#D70C21"/>
<path transform="translate(1598,933)" d="m0 0 2 1v11l-4-1-1-2 1-3h-2l2-4z" fill="#B70B1C"/>
<path transform="translate(438,545)" d="m0 0 2 2-2 10-4-1-1-6z" fill="#88181B"/>
<path transform="translate(825,376)" d="m0 0h2l-1 20-2 3v-21l-2-1z" fill="#D40C20"/>
<path transform="translate(1325,555)" d="m0 0 7 4 1 3h2l3 6 3 3-1 2-15-16z" fill="#88181B"/>
<path transform="translate(349,802)" d="m0 0h5v2h2v2l2 1-2 1h-8v-5z" fill="#AE0E1C"/>
<path transform="translate(470,729)" d="m0 0v3l-2 5 4 3-10 1 2-4z" fill="#A90F1C"/>
<path transform="translate(1401,579)" d="m0 0h4l2 2-16 4 1-3h2v-2h2v2h2v-2z" fill="#DA0C21"/>
<path transform="translate(926,356)" d="m0 0 7 1 9 8v2l-3-1-4-5-9-4z" fill="#D90C21"/>
<path transform="translate(384,785)" d="m0 0h6l-2 2-6 2h-6l3-1v-2z" fill="#AE0E1C"/>
</svg>
