<?xml version="1.0" encoding="UTF-8"?>
<svg version="1.1" viewBox="0 0 2000 2000" width="1280" height="1280" xmlns="http://www.w3.org/2000/svg">
<path transform="translate(1934,724)" d="m0 0h16l1 6-3 7-9 3h-3l-1 6-6 4-9 2-1 5-5 4-8 3h-2l-2 5-7 6-7 1-1 6-5 4-10 2-1 6-7 5-8 1v6l-7 5-9 1-1 6-5 5-10 1v6l-5 5-11 1v6l-6 5-10 1v6l-6 5-10 1v6l-4 5-12 1v7l-4 5-5 3-7 1-1 5-9 6-5 2-3 5-8 5-5 2-4 6-12 6-3 5-5 4-9 2v5l-7 6-8 2-2 5-8 5-6 2-3 9 1 9 3 8 10 2 3 3 1 7h7l6 3 7 6 8 5v2l4 2 13 10 5 4 10 7 4 3v2l5 2 16 12 9 6 2 4v4l10 2 9 7 6 3 6 5 1 7 10 2 5 5 1 5 10 2 5 4 1 6 9 1 6 4 1 7 9 1 5 3 2 8 10 2 5 5 1 5 9 1 6 5 1 6 10 2 10 8 9 7 4 6 9 4 9 9 10 5 13 9 5 4 1 2v12l-1 2-14-1h-204l-9-3-9-6-16-13-17-14-14-11-10-8-18-14-14-12-16-12-11-9-12-10-11-9-10-9-14-11-12-10-10-8-11-8-10-9-5-3h-8l-8 4-6 6-10 1v6l-6 7-9 4-3 6-5 4-9 1v6l-2 4-7 5-7 1-1 6-3 3-4 2-8 1-1 6-6 5-9 1v6l-5 6-4 3-6 2-4 6-4 4-9 1v6l-5 5-10 2-2 9-1 1-13 2-2 11-3 3-9 1-2 1-2 8-9 6-5 2-3 6-8 4-6 2-5 3-150 1-53 2-27 1-6-7 2-6 5-5 10-7 12-8 20-15 14-10 16-13 14-11 10-9 14-10 28-21 20-18 12-9 14-11 12-9 15-12 13-10 14-12 15-12 13-10 14-10 16-13 13-12 4-6-1-6-6-8-20-15-16-13-10-8-14-12-16-12-30-26-14-12-16-13-12-9-11-10-12-9-15-13-11-9-16-13-11-9-14-12-10-9-18-13-10-8-6-6 1-3 4-1 217 1 13 2 5 3 2 5v3l9 2 5 4 3 10 9 1 5 5 1 5 10 3 5 5 2 9 12 2 2 2 1 8 9 1 6 4 1 6 9 3 5 3 2 7v4l10 1 5 4 1 7 8 1 13 10 8 6 4 6 8 4 6 5 2 8 9 1 7 7 7 3h8l7-4 7-7 10-8 12-11 20-18 11-9 13-13 11-9 12-11 10-8 10-9 11-9 13-11 11-9 10-9 11-9 9-6h194l25-1z" fill="#F53442"/>
<path transform="translate(483,849)" d="m0 0h10l3 1 54 1 7 1 13 7 4 5 3 11 8 3 6 8 2 9 8 2 6 7 2 7 7 3 7 8 2 9 7 1 2 4h2v2l8 1 5-3 3-1 2-4 9-11 13-14 9-11 14-15 11-12 4-5h2l1-3 9-6 7-2h10l20 2h42l26-1 20-3h13l12-1h33l3 4v2l9 3 6 11 1 4v11h9l6 10 2 13 8 1 6 10 2 9 7 2 6 10 2 7 1 5 8 1 6 8 1 4v16h11l9 7h5l3-1 2-4 12-19 13-19 18-27 13-17 10-15 9-15 7-11 7-6 2-1h48l19 1 14 4 2 5v62l-1 19-11 1v92h10l1 1v18l-11 1 1 15 9 1 2 3v11l-1 1-11 1v5l-1 1h-71l-5-3-2-6v-80l-16 8-3 12-3 5-8 2h-3v11l-3 7-4 5-9 1v11l-3 7-13 3-4 2h-44l-10-3-7-7-13-21-10-14-13-17-9-12-4-5-6-2-7 6-1 89-1 3h-17l-15-1h-21l-6 1h-9l-7-6-2-6v-17l1-37v-145l-2-9-5 1-9 3h-3l-1 5-5 6-10 1v7l-4 6-3 2-9 1v7l-5 6-10 4-3 9-6 5-7 2-3 9-6 5-7 2-2 7-8 7-6 2-3 9-6 5-8 1v6l-5 5-11 1v93l-2 3h-78l-5-4-3-8v-12l2-46v-14l-3-8-9-10-10-8-16-15-11-11-8-7-13-11-9-9-8-7-17-16-9-8-8-7-10-9-9-8-7-8-4-6 2-5 4-4 9-4 4-1z" fill="#F53442"/>
<path transform="translate(427,817)" d="m0 0 4 1 1 5 10 2 2 3 1 5 1 23-3 27v14l-2 5-11 2h-224l-20 2-9 2-2 14-1 50v30l2 9 5 2 13 4h93l11 1h60l7-5 1-2v-9l-4-4-3-1h-46l-20 3-7-1-4-11v-52l3-8 2-2 160-1 1 2v162l-2 2-74-1h-231l-9-3-9-8-10-13-7-7-7-8-9-9-7-11-1-4v-146l5-8 5-6h2v-2l8-7 8-8 8-7 10-9 10-8 8-5h20l25 1 49 1h106l60-2 14-1z" fill="#F53341"/>
<path transform="translate(440,825)" d="m0 0 3 1 2 7 1 23-3 27v14l-2 5-11 2h-224l-20 2-9 2-2 14-1 50v30l1 7-4-4-2-7v-59l1-23 3-7 6-8 1-1 7-1h252v-18l1-24 1-3-1-2z" fill="#FDFEFD"/>
<path transform="translate(83,879)" d="m0 0 1 3v143l4 8 8 10 12 14 11 12 9 11 6 4 3 1 309 1v-160h-13v-1h14l1 2v162l-2 2-74-1h-231l-9-3-9-8-10-13-7-7-7-8-9-9-7-11-1-4v-146z" fill="#FDFEFD"/>
<path transform="translate(1327,1204)" d="m0 0 2 1-2 8-9 6-5 2-3 6-8 4-6 2-5 3-150 1-53 2-27 1-6-7 2-6 5-5 10-7 5-2-5 5-9 7-3 1-1 5h233l5-2 16-13z" fill="#FDFEFD"/>
<path transform="translate(1560,1087)" d="m0 0 4 2 16 13 10 8 9 8 10 7v2l4 2 16 13 14 11 13 11 12 9 16 13 12 9 13 11 12 9 12 10 8 5 4 1h223l-1 6-14-1h-204l-9-3-9-6-16-13-17-14-14-11-10-8-18-14-14-12-16-12-11-9-12-10-11-9-10-9-14-11-8-7z" fill="#FDFEFD"/>
<path transform="translate(557,963)" d="m0 0 4 2 9 9 8 7 10 9 8 7 6 8 2 6v19l-1 33v26h83l1-83h1v87l-2 3h-78l-5-4-3-8v-12l2-46v-14l-3-8-9-10-10-8-16-15-7-7z" fill="#FDFEFD"/>
<path transform="translate(1087,726)" d="m0 0h4l4 6 7 7 16 12 10 9 14 11 12 11 10 8 17 14 11 9 13 11 11 9 17 14 14 11 11 10 20 16 7 7 11 8 14 12 16 13 14 12 10 8 1 2-4-2-14-11-11-9-14-12-16-12-30-26-14-12-16-13-12-9-11-10-12-9-15-13-11-9-16-13-11-9-14-12-10-9-18-13-10-8-6-6z" fill="#FDFEFD"/>
<path transform="translate(1759,874)" d="m0 0h1l-1 7-5 4-3 2-7 1-1 5-9 6-5 2-3 5-8 5-5 2-4 6-12 6-3 5-5 4-9 2v5l-7 6-8 2-2 5-8 5-4-1 8-8 12-8 10-9 19-14 13-10 11-9 16-11 10-9z" fill="#FDFEFD"/>
<path transform="translate(1934,724)" d="m0 0h16l1 6-3 7-9 3h-3l-1 6-6 4-9 2-1 5-5 4-8 3h-2l-2 5-7 6-7 1-1 6-5 4-10 2-1 6-7 5-8 1 4-5 17-12 13-11 19-14 16-12 14-10 5-5h2l2-5h-21v-1z" fill="#FDFEFD"/>
<path transform="translate(962,1046)" d="m0 0 4 4 9 14 6 7 13 2 50-1 5-3 6-10h1v8l-3 7-13 3-4 2h-44l-10-3-7-7-13-21z" fill="#FDFEFD"/>
<path transform="translate(911,1031)" d="m0 0h1v62l-1 3h-17l-15-1h-21l-6 1h-9l-7-6 3-1 72 1z" fill="#FDFEFD"/>
<path transform="translate(483,849)" d="m0 0h10l3 1 54 1 7 1 3 3h-91l-12 1 4-3 9-3z" fill="#FDFEFD"/>
<path transform="translate(1191,857)" d="m0 0 4 1 1 4v62l-1 19h-4z" fill="#FDFEFD"/>
<path transform="translate(1107,1088)" d="m0 0 4 1h73l-1 5h-71l-5-3z" fill="#FDFEFD"/>
<path transform="translate(284,992)" d="m0 0 52 1h19l7 2 2 3-5-1h-46l-20 3-7-1-2-4z" fill="#FDFEFD"/>
<path transform="translate(453,859)" d="m0 0 1 4 3 6 7 7 11 9 13 13 8 7 5 4v2l4 2 7 7 8 7 12 12 8 7 10 9 3 4-4-2-11-10-8-7-7-7-8-7-17-16-9-8-8-7-10-9-9-8-7-8-4-6z" fill="#FDFEFD"/>
<path transform="translate(751,941)" d="m0 0h1l-1 8-7 6-7 2-2 7-8 7-6 2-3 9-6 5-8 1 6-7 9-9 5-6 8-7 7-7 8-7z" fill="#FDFEFD"/>
<path transform="translate(1455,1096)" d="m0 0h1v6l-2 4-7 5-7 1-1 6-3 3-4 2-8 1-1 6-6 5h-7l5-5 8-7 9-7 12-11 10-8z" fill="#FDFEFD"/>
<path transform="translate(828,865)" d="m0 0h4l1 3v7l-14 5h-3l-1 5-5 6h-7l6-8 17-16z" fill="#FDFEFD"/>
<path transform="translate(146,821)" d="m0 0h20l25 1 49 1v1l-96 1-10 7h-3l7-6z" fill="#FDFEFD"/>
<path transform="translate(427,817)" d="m0 0 4 1 1 5-10 1h-76v-1l60-2 14-1z" fill="#FDFEFD"/>
<path transform="translate(783,909)" d="m0 0h1v6l-5 6-10 4-3 9-6 5-7 1 6-7 12-13 8-7z" fill="#FDFEFD"/>
<path transform="translate(1407,1137)" d="m0 0h1l-1 7-8 7-6 2-4 6-4 4h-7l14-14 12-9z" fill="#FDFEFD"/>
<path transform="translate(1487,1070)" d="m0 0 1 4-6 7-9 4-3 6-5 4h-7l5-5 15-13z" fill="#FDFEFD"/>
<path transform="translate(1509,1052)" d="m0 0h8l8 6h-3l-7-1-6 1-6 4-5 5-5 1v-3l7-7z" fill="#FDFEFD"/>
<path transform="translate(913,985)" d="m0 0 5 3 8 10-2 1-4-1-7 6h-1v-10z" fill="#FDFEFD"/>
<path transform="translate(1647,961)" d="m0 0 1 3-2 6v9l-8-6-2-4 6-5z" fill="#FDFEFD"/>
<path transform="translate(1100,995)" d="m0 0 3 1 2 9-14 7-2-1 8-10z" fill="#FDFEFD"/>
<path transform="translate(799,893)" d="m0 0h1v6l-4 6-3 2-8 1 4-6h2l2-4z" fill="#FDFEFD"/>
<path transform="translate(1343,1191)" d="m0 0h1l-1 9-3 3-11 1 12-12z" fill="#FDFEFD"/>
<path transform="translate(1071,1036)" d="m0 0h1v7l-3 7-4 5h-6l6-9 5-7z" fill="#FDFEFD"/>
<path transform="translate(914,856)" d="m0 0 7 2 6 11 1 10-2-3-9-15z" fill="#FDFEFD"/>
<path transform="translate(1087,1014)" d="m0 0h1l-1 8-4 8-7 1 7-12z" fill="#FDFEFD"/>
<path transform="translate(733,852)" d="m0 0h10l20 2v1h-37l3-2z" fill="#FDFEFD"/>
<path transform="translate(1854,800)" d="m0 0h2v6l-7 5-9 1 4-4 9-7z" fill="#FDFEFD"/>
<path transform="translate(1375,1164)" d="m0 0h1v6l-5 5h-8l5-6z" fill="#FDFEFD"/>
<path transform="translate(702,988)" d="m0 0h2v6l-5 5h-7l6-7z" fill="#FDFEFD"/>
<path transform="translate(1838,812)" d="m0 0h2l-1 6-5 5-5 1-2-2z" fill="#FDFEFD"/>
<path transform="translate(1822,825)" d="m0 0h2v5l-5 5h-9l3-3z" fill="#FDFEFD"/>
<path transform="translate(1359,1177)" d="m0 0h1v7l-2 3-11 1 5-5z" fill="#FDFEFD"/>
<path transform="translate(1191,1072)" d="m0 0 4 1 1 2v11l-5 1z" fill="#FDFEFD"/>
<path transform="translate(1190,1036)" d="m0 0 5 1v18l-4-1 1-8v-9z" fill="#FDFEFD"/>
<path transform="translate(562,856)" d="m0 0 6 2 5 5 2 4-1 4-12-14z" fill="#FDFEFD"/>
<path transform="translate(110,850)" d="m0 0 2 1-26 26v-3l6-7h2v-2l8-7z" fill="#FABCC0"/>
<path transform="translate(1807,837)" d="m0 0h1v5l-6 5h-7l5-5z" fill="#FDFEFD"/>
<path transform="translate(1775,861)" d="m0 0h1l-1 7-3 3h-8l5-5z" fill="#FDFEFD"/>
<path transform="translate(1791,849)" d="m0 0h1v5l-6 5h-7l4-4z" fill="#FDFEFD"/>
<path transform="translate(721,857)" d="m0 0 2 1-15 15-2-1 8-9h2l1-3z" fill="#F9A9AE"/>
<path transform="translate(932,884)" d="m0 0h5l6 10-1 3-8-11z" fill="#FDFEFD"/>
<path transform="translate(580,877)" d="m0 0 5 1 6 8-1 3-4-5v-2h-2v-2l-4-2z" fill="#FDFEFD"/>
<path transform="translate(1525,1059)" d="m0 0 4 2 12 10-2 1-10-8z" fill="#FDFEFD"/>
<path transform="translate(1318,728)" d="m0 0 6 1 3 4-1 3-8-7z" fill="#FDFEFD"/>
<path transform="translate(429,904)" d="m0 0" fill="#FDFEFD"/>
</svg>
